<?xml version="1.0" encoding="utf-8"?>
<svg xmlns="http://www.w3.org/2000/svg" viewBox="0 0 136 38">
  <g fill="#ffe040" transform="translate(4,5)">
    <path d="M0 24.5986C0.163616 23.7275 0.33467 22.849 0.475975 21.9705C0.520597 21.6852 0.61728 21.505 0.892453 21.3848C2.35013 20.7015 3.79292 20.0032 5.2506 19.3049C5.31753 19.2749 5.39934 19.2523 5.53321 19.2073C5.28034 20.6715 5.03492 22.0831 4.78206 23.5699C5.19854 23.5699 5.57039 23.5699 5.94968 23.5699C6.53721 23.5699 7.12475 23.5548 7.70484 23.5699C8.00232 23.5849 8.09901 23.4722 8.14363 23.1869C8.58242 20.5889 9.04352 17.9909 9.48975 15.3929C9.51949 15.2202 9.54924 15.0475 9.58643 14.8072C6.71571 16.1888 3.91192 17.5479 1.02632 18.937C1.14531 18.2387 1.242 17.6154 1.34612 16.9997C2.08239 12.7949 2.8261 8.58997 3.55494 4.38509C3.70368 3.51408 3.88961 2.65809 4.37302 1.89971C5.09442 0.780908 6.15049 0.142667 7.45942 0.0976149C9.46 0.0300365 11.468 0.00751035 13.4612 0.0976149C15.5733 0.180211 16.3244 1.62188 16.1757 3.46903C16.1088 4.25744 15.8262 4.75302 15.0304 5.06838C13.7438 5.57898 12.5166 6.25476 11.2672 6.85546C11.1854 6.893 11.0962 6.92304 10.9697 6.96809C11.111 6.14213 11.2449 5.36122 11.3936 4.50523C11.1036 4.50523 10.8582 4.50523 10.6053 4.50523C9.89879 4.50523 9.18482 4.52025 8.4783 4.49772C8.18081 4.49021 8.0767 4.59534 8.02464 4.87316C7.6974 6.79539 7.36273 8.71762 7.0355 10.6399C6.99088 10.9102 6.94626 11.173 6.88676 11.5109C9.76492 10.1443 12.591 8.80022 15.4841 7.41861C15.3279 8.33468 15.194 9.16814 15.0453 10.0091C14.5619 12.7949 14.071 15.5806 13.5802 18.3663C13.2306 20.3711 12.8959 22.3685 12.5166 24.3658C12.2638 25.7249 11.6168 26.8587 10.345 27.4819C9.80954 27.7447 9.18482 27.9399 8.58986 27.9549C6.62646 28.015 4.66306 28 2.70711 27.97C1.65104 27.9549 0.766022 27.542 0.28261 26.5208C0.156179 26.2505 0.0966824 25.9576 0.0074371 25.6723C0.0074371 25.3119 0.0074371 24.959 0.0074371 24.5986H0Z"/>
    <path d="M40.8595 27.97H36.3006C36.9848 24.0504 37.6615 20.1534 38.3532 16.1813C37.312 16.6693 36.3452 17.1649 35.3412 17.5854C34.8429 17.7881 34.6718 18.1035 34.5826 18.6066C34.0769 21.6101 33.5414 24.6136 33.0208 27.6171C32.991 27.8048 33.0059 27.9925 32.7084 27.9925C31.2954 27.9775 29.8749 27.9925 28.4023 27.9925C28.5288 27.2191 28.6478 26.4832 28.7816 25.7474C29.1535 23.6074 29.5328 21.4749 29.9046 19.3349C30.7822 14.3041 31.6524 9.27326 32.5522 4.24243C32.6861 3.51408 32.9092 2.76321 33.2439 2.10995C33.8909 0.833469 35.0214 0.157685 36.4121 0.105124C38.4276 0.0300367 40.443 0.0375454 42.4585 0.0901064C44.2062 0.142667 45.2176 1.24645 45.121 3.00349C45.054 4.17485 44.8012 5.3387 44.6004 6.50255C44.0798 9.5586 43.5443 12.6146 43.0088 15.6707C42.2949 19.7554 41.5809 23.8402 40.8521 27.9625L40.8595 27.97ZM35.6163 12.8324C35.7428 12.8024 35.8097 12.7949 35.8692 12.7723C36.9253 12.2918 37.9813 11.8187 39.03 11.3231C39.1415 11.2706 39.2456 11.0904 39.268 10.9552C39.4613 9.93403 39.6398 8.90534 39.8183 7.87664C40.0117 6.77286 40.1976 5.66908 40.391 4.51274C39.3869 4.51274 38.4201 4.52025 37.4607 4.51274C37.1558 4.51274 37.0443 4.60284 36.9922 4.9107C36.665 6.87048 36.308 8.83025 35.9659 10.79C35.8469 11.4583 35.7353 12.1341 35.6163 12.8399V12.8324Z"/>
    <path d="M87.646 17.7131C87.1552 17.8257 86.9097 18.081 86.8205 18.5991C86.3222 21.6026 85.7867 24.6061 85.2587 27.6096C85.2364 27.7297 85.2066 27.8424 85.1769 27.9775H80.6328C80.8113 26.9864 80.9824 26.0177 81.146 25.0491C81.8674 20.9118 82.5888 16.7745 83.3102 12.6372C84.0241 8.56749 84.7381 4.49777 85.4521 0.428047C85.4892 0.225312 85.5041 0.0601204 85.7793 0.0676291C88.7467 0.0826465 91.7215 0.0451029 94.6889 0.105173C96.459 0.142716 97.4853 1.30657 97.3663 3.09364C97.2919 4.16739 97.0614 5.24113 96.8829 6.30737C96.4664 8.7402 96.0276 11.173 95.6111 13.6134C95.574 13.8461 95.4847 13.9663 95.2765 14.0639C94.3022 14.5144 93.328 14.9799 92.3611 15.4455C92.2124 15.5131 92.0711 15.5881 91.9149 15.6707C92.9189 19.7855 93.9229 23.8703 94.9344 28.0001C94.4212 28.0001 93.9452 28.0001 93.4693 28.0001C92.4727 28.0001 91.4835 28.0001 90.487 28.0001C90.2564 28.0001 90.1597 27.94 90.1002 27.6997C89.5425 25.3645 88.9772 23.0293 88.4046 20.6941C88.1889 19.8005 87.9732 18.907 87.7576 18.0135C87.7352 17.9083 87.6906 17.8107 87.6534 17.7131H87.646ZM92.6214 4.51279C91.6323 4.51279 90.6952 4.52781 89.7581 4.50528C89.4012 4.49777 89.2747 4.6104 89.2152 4.96331C88.9029 6.81796 88.5682 8.66511 88.241 10.5123C88.0997 11.3157 87.9658 12.1266 87.8171 13.0051C89.0219 12.4495 90.1523 11.9239 91.2827 11.3833C91.3794 11.3382 91.4612 11.1805 91.4836 11.0604C91.8628 8.89788 92.2347 6.73537 92.6214 4.50528V4.51279Z"/>
    <path d="M58.0685 27.9701H53.3161C52.4906 24.5537 51.6651 21.1447 50.8396 17.7358C50.2074 17.8709 50.1033 17.9685 50.0066 18.5242C49.4712 21.5652 48.9431 24.6062 48.4077 27.6548C48.3853 27.7599 48.3556 27.865 48.3333 27.9776H43.8115C43.9008 27.437 43.9826 26.9114 44.0718 26.3933C44.5404 23.6902 45.0089 20.9795 45.4774 18.2764C46.1096 14.6647 46.7492 11.0605 47.3813 7.44882C47.7904 5.1061 48.1994 2.77089 48.5936 0.42817C48.6382 0.142839 48.7423 0.0527344 49.0398 0.0527344C51.8436 0.0677518 54.6548 0.0527344 57.4586 0.0602431C57.7263 0.0602431 58.009 0.0752605 58.2693 0.127822C60.0244 0.495749 60.8127 1.75721 60.4855 3.71699C59.9277 6.99079 59.3476 10.2646 58.7824 13.5384C58.7378 13.8012 58.6337 13.9664 58.3734 14.0865C57.3768 14.537 56.4025 15.0176 55.4134 15.4756C55.1605 15.5883 55.0713 15.7084 55.1457 16.0088C55.9043 19.0423 56.648 22.0833 57.3917 25.1243C57.6222 26.0704 57.8453 27.009 58.0759 27.9852L58.0685 27.9701ZM50.9735 13.0053C52.1336 12.4646 53.212 11.954 54.3053 11.466C54.5358 11.3609 54.6176 11.2182 54.6548 10.9779C54.9895 9.03316 55.339 7.0884 55.6811 5.14364C55.7183 4.94842 55.7332 4.75319 55.763 4.51291C54.7441 4.51291 53.7772 4.52042 52.8179 4.51291C52.5278 4.51291 52.4237 4.59551 52.3791 4.88835C52.0518 6.86314 51.7023 8.83793 51.3602 10.8052C51.2338 11.5185 51.1148 12.2244 50.9735 13.0128V13.0053Z"/>
    <path d="M118.682 0.0905028C118.101 3.43188 117.521 6.73571 116.941 10.0395C116.964 10.0546 116.986 10.0621 117.016 10.0771C117.254 9.69415 117.499 9.3112 117.737 8.92826C119.5 6.07495 121.262 3.21413 123.032 0.360817C123.114 0.22566 123.285 0.0679766 123.419 0.0679766C124.914 0.0454505 126.416 0.0529592 128 0.0529592C127.911 0.22566 127.851 0.33829 127.785 0.443412C125.494 4.11517 123.203 7.79444 120.898 11.4587C120.742 11.7065 120.734 11.9242 120.794 12.187C121.991 17.3455 123.188 22.5115 124.378 27.67C124.393 27.7526 124.408 27.8277 124.438 27.9553C124.289 27.9629 124.163 27.9779 124.036 27.9779C122.712 27.9779 121.396 27.9704 120.072 27.9854C119.76 27.9854 119.663 27.8878 119.604 27.5799C118.905 23.8706 118.191 20.1613 117.484 16.452C117.484 16.4295 117.462 16.4069 117.417 16.3168C117.179 16.7148 116.949 17.0752 116.733 17.4431C116.257 18.2316 115.744 18.9974 115.342 19.8159C115.112 20.2814 115.06 20.8371 114.97 21.3627C114.599 23.4426 114.242 25.53 113.877 27.6099C113.855 27.7151 113.825 27.8202 113.795 27.9478H109.296C110.917 18.652 112.538 9.37878 114.167 0.0679766H118.689L118.682 0.0905028Z"/>
    <path d="M101.316 23.5248H107.689C107.6 24.0204 107.526 24.4634 107.444 24.9064C107.28 25.815 107.109 26.716 106.968 27.6246C106.923 27.9249 106.819 28 106.529 28C105.384 27.985 104.239 28 103.093 28C100.87 28 98.6533 28 96.4296 28C96.2659 28 96.1098 28 95.9238 28C96.1767 26.5283 96.4147 25.1091 96.6527 23.6825C97.1138 20.9718 97.5674 18.2687 98.0285 15.5581C98.6904 11.661 99.3375 7.75651 100.014 3.85948C100.26 2.42532 100.855 1.15635 102.223 0.488069C102.781 0.217756 103.443 0.022529 104.06 0.0150203C106.537 -0.0150146 109.021 0.0375464 111.497 0.0600726C111.571 0.0600726 111.653 0.0825987 111.772 0.105125C111.512 1.58434 111.259 3.04103 110.999 4.54278H104.581C104.164 6.93806 103.748 9.28078 103.324 11.7211C105.681 10.6248 107.957 9.56611 110.307 8.46983C110.158 9.34084 110.025 10.1368 109.883 10.9327C109.749 11.6761 109.63 12.4194 109.474 13.1628C109.437 13.328 109.296 13.5382 109.147 13.6133C107.035 14.627 104.908 15.6181 102.788 16.6318C102.617 16.7144 102.424 16.9096 102.394 17.0823C102.015 19.1472 101.665 21.2196 101.301 23.292C101.286 23.3596 101.301 23.4272 101.301 23.5398L101.316 23.5248Z"/>
    <path d="M74.6087 27.9626H70.0721C71.433 20.1611 72.794 12.382 74.1625 4.56547H69.7002C69.7746 4.12997 69.8489 3.74702 69.9159 3.36408C70.0869 2.38794 70.2505 1.41181 70.4142 0.443188C70.4513 0.210417 70.5034 0.0527344 70.8083 0.0527344C75.1144 0.0602431 79.4205 0.0527344 83.7266 0.0602431C83.7935 0.0602431 83.8604 0.0752605 83.972 0.0827692C83.7117 1.56949 83.4588 3.03369 83.1911 4.54295H82.7374C81.5103 4.54295 80.2832 4.54295 79.0561 4.54295C78.8106 4.54295 78.6991 4.59551 78.6545 4.86582C78.0372 8.4625 77.4125 12.0667 76.7803 15.6634C76.0738 19.7106 75.3598 23.7502 74.6533 27.7974C74.6459 27.85 74.631 27.9026 74.6087 27.9776V27.9626Z"/>
    <path d="M22.4005 27.977H17.8416C19.2026 20.1755 20.5636 12.3964 21.932 4.56484H17.4697C17.5887 3.85152 17.7003 3.19826 17.8118 2.53749C17.9308 1.86171 18.0647 1.18592 18.1614 0.510138C18.2134 0.157228 18.3547 0.0445975 18.7117 0.0521062C21.1808 0.0671236 23.6425 0.0596149 26.1116 0.0596149C27.8296 0.0596149 29.5476 0.0596149 31.2581 0.0596149C31.4069 0.0596149 31.5482 0.0596149 31.7415 0.0596149C31.4738 1.57638 31.2209 3.03307 30.9606 4.53481H26.4984C25.1299 12.3739 23.769 20.168 22.4005 27.9845V27.977Z"/>
  </g>
</svg>